<svg width="161" height="69" viewBox="0 0 161 69" fill="none" xmlns="http://www.w3.org/2000/svg">
<path fill-rule="evenodd" clip-rule="evenodd" d="M85.5441 35.43V42.6081H80.0111C77.2446 42.6081 75.3775 41.1589 75.3775 38.9919C75.3775 36.7573 77.1083 35.43 80.0111 35.43H85.5441ZM79.8612 32.3691C77.2991 32.3691 75.1186 33.1276 73.7285 34.5226C72.6791 35.5383 72.0795 37.0958 72.0795 38.8294C72.0795 41.8632 73.9329 44.152 77.0674 44.9917L70.6485 53.4565L70.594 53.5242L70.2533 53.9576H70.8121H74.1918H74.3281L74.4099 53.8492L80.6652 45.5606H85.5441V53.6867V53.9576H85.8167H88.5696H88.8421V53.6867V32.64V32.3691H88.5696H79.8612Z" fill="#7BAB34"/>
<path fill-rule="evenodd" clip-rule="evenodd" d="M10.8889 50.9781C6.55516 50.9781 3.28439 47.6193 3.28439 43.177C3.28439 38.7076 6.55516 35.3353 10.8889 35.3353C15.2091 35.3353 18.4798 38.7076 18.4798 43.177C18.4798 47.6193 15.2091 50.9781 10.8889 50.9781ZM10.8889 32.3286C7.90435 32.3286 5.15145 33.4256 3.13448 35.4436C1.10388 37.4481 0 40.1974 0 43.177C0 46.143 1.11751 48.8788 3.14811 50.8833C5.16508 52.8877 7.91797 53.9848 10.8889 53.9848C13.8462 53.9848 16.5991 52.8877 18.6161 50.8833C20.6467 48.8788 21.7642 46.143 21.7642 43.177C21.7642 40.1974 20.6467 37.4481 18.6297 35.4436C16.6128 33.4256 13.8599 32.3286 10.8889 32.3286Z" fill="#7BAB34"/>
<path fill-rule="evenodd" clip-rule="evenodd" d="M35.8149 41.3214H29.4369V35.5112H35.8149H35.8286H35.8558C37.9409 35.5112 38.9903 36.4322 38.9903 38.2606C38.9903 40.1838 37.8046 41.3214 35.8149 41.3214ZM29.4369 44.4635H35.9103C39.2356 44.4635 39.7398 46.4544 39.7398 47.6463C39.7398 48.3912 39.4536 50.8155 35.9103 50.8155H29.4369V44.4635ZM39.9851 42.5539C41.4161 41.66 42.2747 40.0754 42.2747 38.2606C42.2747 37.1636 42.0566 35.5925 40.98 34.3194C39.9034 33.0328 38.2271 32.3691 35.9921 32.3691H26.4115H26.1389V32.6536V53.6732V53.9576H26.4115H36.2101C40.9119 53.9576 43.0242 50.7613 43.0242 47.6056C43.0242 45.2626 41.8522 43.353 39.9851 42.5539Z" fill="#7BAB34"/>
<path fill-rule="evenodd" clip-rule="evenodd" d="M109.175 32.3691H108.903V32.64V41.3214H98.0821V32.64V32.3691H97.8232H95.0703H94.7977V32.4639V53.5106V53.9576H95.0703H97.8232H98.0821V53.6867V44.4635H108.903V53.6867V53.9576H109.175H111.915H112.187V53.5106V32.4639V32.3691H111.915H109.175Z" fill="#7BAB34"/>
<path fill-rule="evenodd" clip-rule="evenodd" d="M118.415 32.3691H118.143V32.64V53.6867V53.9576H118.415H121.154H121.427V53.6867V32.64V32.3691H121.154H118.415Z" fill="#7BAB34"/>
<path fill-rule="evenodd" clip-rule="evenodd" d="M126.606 42.7978L134.769 32.8433L135.137 32.3828H134.565H131.335H131.212L131.13 32.4776L122.667 42.852L122.517 43.0281L122.667 43.2041L131.348 53.8494L131.43 53.9577H131.553H135.083H135.655L135.287 53.4837L126.606 42.7978Z" fill="#7BAB34"/>
<path fill-rule="evenodd" clip-rule="evenodd" d="M148.152 50.9781C143.818 50.9781 140.302 47.5109 140.302 43.2447C140.302 38.8024 143.709 35.3353 148.084 35.3353C152.445 35.3353 155.866 38.8295 155.866 43.2854C155.866 47.5922 152.472 50.9781 148.152 50.9781ZM158.728 32.3692H156.138H155.866V32.6401V35.8364C154.067 33.5069 151.45 32.3286 148.084 32.3286C140.888 32.3286 137.018 37.8408 137.018 43.028C137.018 46.1024 138.163 48.8924 140.248 50.9104C142.306 52.8877 145.113 53.9848 148.152 53.9848C151.341 53.9848 153.985 52.6846 155.866 50.2197V53.6868V53.9577H156.138H158.728H159V53.6868V32.6401V32.3692H158.728Z" fill="#7BAB34"/>
<path fill-rule="evenodd" clip-rule="evenodd" d="M57.6337 35.3353C60.7546 35.3353 63.4121 37.0824 64.5977 39.8995L64.6659 40.0755H64.843H67.7322H68.1002L67.9911 39.7234C66.5602 35.2269 62.499 32.3286 57.6337 32.3286C54.6628 32.3286 51.9099 33.4256 49.8793 35.4436C47.8623 37.4481 46.7584 40.1974 46.7584 43.177C46.7584 46.143 47.8759 48.8788 49.9065 50.8833C51.9235 52.8877 54.6628 53.9848 57.6337 53.9848C60.0323 53.9848 62.2673 53.2805 64.1207 51.9397C65.9469 50.626 67.2825 48.784 67.9775 46.6171L68.1002 46.2785H67.7186H64.843H64.6659L64.5977 46.441C63.4121 49.2445 60.7546 50.9781 57.6337 50.9781C53.3136 50.9781 50.0428 47.6193 50.0428 43.177C50.0428 38.7076 53.3136 35.3353 57.6337 35.3353Z" fill="#7BAB34"/>
<path fill-rule="evenodd" clip-rule="evenodd" d="M79.3977 24.9066C76.9174 24.9066 72.3383 20.83 69.49 14.7489C66.3691 8.11259 68.3997 0.717809 68.4815 0.406307L68.6042 0L68.9858 0.176066C69.2719 0.311502 76.2768 3.50778 79.3977 10.1577C82.5867 16.9701 82.4504 23.7012 80.2017 24.7441C79.9701 24.8524 79.6975 24.9066 79.3977 24.9066Z" fill="#7BAB34"/>
<path fill-rule="evenodd" clip-rule="evenodd" d="M90.6273 0.500977C90.6273 0.500977 83.4725 3.7108 80.3789 10.3065C80.3653 10.3336 80.3653 10.3607 80.3517 10.3742C80.7605 11.2952 81.1285 12.2432 81.4283 13.1642C81.8508 12.0401 83.6361 8.00411 88.3651 4.29317C88.3651 4.29317 83.677 8.80318 81.878 14.6675C82.9138 18.5275 82.941 22.1165 81.9189 23.9584C84.3175 22.6447 87.4792 19.2317 89.6461 14.5998C92.7397 8.00411 90.6273 0.500977 90.6273 0.500977Z" fill="#75982A"/>
<path d="M2.89029 67.0001H3.49069V62.2273H6.48509V67.0001H7.08549V61.6801H2.89029V67.0001Z" fill="#75982A"/>
<path d="M8.59029 67.0001H9.19069V65.1229H10.4827C11.6151 65.1229 12.5727 64.5301 12.5727 63.3825C12.5727 62.3185 11.7823 61.6801 10.5815 61.6801H8.59029V67.0001ZM9.19069 64.5757V62.2349H10.5359C11.3947 62.2349 11.9647 62.6301 11.9647 63.3901C11.9647 64.1045 11.3871 64.5757 10.5055 64.5757H9.19069Z" fill="#75982A"/>
<path d="M13.2109 67.0001H13.8265L14.4573 65.5941H17.3529L17.9761 67.0001H18.6221L16.1977 61.6421H15.6353L13.2109 67.0001ZM14.6929 65.0545L15.9089 62.3413L17.1173 65.0545H14.6929Z" fill="#75982A"/>
<path d="M19.6711 67.0001H22.0347C23.1975 67.0001 23.9651 66.4605 23.9651 65.5485C23.9651 64.8037 23.4559 64.4389 22.8251 64.2489C23.2431 64.0665 23.6687 63.7093 23.6687 63.0177C23.6687 62.6605 23.5471 62.3793 23.3267 62.1513C23.0303 61.8473 22.5439 61.6801 21.9359 61.6801H19.6711V67.0001ZM20.2639 66.4605V64.5833H21.9435C22.8707 64.5833 23.3571 64.9177 23.3571 65.4953C23.3571 66.1033 22.8555 66.4605 22.0499 66.4605H20.2639ZM20.2639 64.0513V62.2197H21.8827C22.6427 62.2197 23.0607 62.5617 23.0607 63.0861C23.0607 63.7245 22.5591 64.0513 21.8371 64.0513H20.2639Z" fill="#75982A"/>
<path d="M25.1559 67.0001H25.7411L28.9103 62.5845V67.0001H29.5031V61.6801H28.9331L25.7563 66.0957V61.6801H25.1559V67.0001Z" fill="#75982A"/>
<path d="M30.9056 67.0609C31.7264 67.0609 32.4864 66.5365 32.4864 62.8049V62.2273H34.7512V67.0001H35.3516V61.6801H31.9088V62.6453C31.9088 66.2705 31.2172 66.5213 30.8068 66.5213C30.6396 66.5213 30.4191 66.4833 30.3356 66.4453L30.214 66.9317C30.3508 66.9849 30.67 67.0609 30.9056 67.0609Z" fill="#75982A"/>
<path d="M36.8528 67.0001H38.8896C40.098 67.0001 40.8656 66.3465 40.8656 65.3053C40.8656 64.1957 39.9384 63.7397 38.7984 63.7397H37.4532V61.6801H36.8528V67.0001ZM37.4532 66.4529V64.2793H38.8364C39.718 64.2793 40.2652 64.6289 40.2652 65.3205C40.2652 66.0729 39.7256 66.4529 38.8744 66.4529H37.4532Z" fill="#75982A"/>
<path d="M41.959 67.0001H42.5594V64.6061H45.6298V67.0001H46.2302V61.6801H45.6298V64.0437H42.5594V61.6801H41.959V67.0001Z" fill="#75982A"/>
<path d="M50.2033 67.0913C51.8221 67.0913 52.9241 65.8069 52.9241 64.3401C52.9241 62.8581 51.8373 61.5889 50.2185 61.5889C48.5997 61.5889 47.4977 62.8733 47.4977 64.3401C47.4977 65.8221 48.5845 67.0913 50.2033 67.0913ZM50.2185 66.5365C49.0025 66.5365 48.1209 65.5485 48.1209 64.3401C48.1209 63.1165 48.9873 62.1437 50.2033 62.1437C51.4193 62.1437 52.3009 63.1317 52.3009 64.3401C52.3009 65.5637 51.4345 66.5365 50.2185 66.5365Z" fill="#75982A"/>
<path d="M54.1903 67.0001H58.0739V66.4529H54.7907V64.5909H57.6939V64.0437H54.7907V62.2273H58.0359V61.6801H54.1903V67.0001Z" fill="#75982A"/>
<path d="M61.5602 67.0001H62.1606V62.2273H65.155V67.0001H65.7554V61.6801H61.5602V67.0001Z" fill="#75982A"/>
<path d="M67.2602 67.0001H67.8454L71.0146 62.5845V67.0001H71.6074V61.6801H71.0374L67.8606 66.0957V61.6801H67.2602V67.0001Z" fill="#75982A"/>
<path d="M74.5146 67.0001H75.1227V62.2273H76.9086V61.6801H72.7286V62.2273H74.5146V67.0001Z" fill="#75982A"/>
<path d="M77.5808 67.0001H78.1964L78.8272 65.5941H81.7228L82.346 67.0001H82.992L80.5676 61.6421H80.0052L77.5808 67.0001ZM79.0628 65.0545L80.2788 62.3413L81.4872 65.0545H79.0628Z" fill="#75982A"/>
<path d="M84.0411 67.0001H84.6415V64.6061H87.7119V67.0001H88.3123V61.6801H87.7119V64.0437H84.6415V61.6801H84.0411V67.0001Z" fill="#75982A"/>
<path d="M89.8153 67.0001H90.4005L93.5697 62.5845V67.0001H94.1625V61.6801H93.5925L90.4157 66.0957V61.6801H89.8153V67.0001Z" fill="#75982A"/>
<path d="M95.6637 67.0001H99.5473V66.4529H96.2641V64.5909H99.1673V64.0437H96.2641V62.2273H99.5093V61.6801H95.6637V67.0001Z" fill="#75982A"/>
<path d="M102.357 68.1857H102.866L102.973 67.0001H107.29V68.1857H107.791L107.882 66.4529H107.191V61.6801H103.71V62.6073C103.71 64.3325 103.414 65.6397 102.904 66.4529H102.357V68.1857ZM103.581 66.4529C104.022 65.7233 104.288 64.2945 104.288 62.9189V62.2273H106.59V66.4529H103.581Z" fill="#75982A"/>
<path d="M108.665 67.0609C109.485 67.0609 110.245 66.5365 110.245 62.8049V62.2273H112.51V67.0001H113.111V61.6801H109.668V62.6453C109.668 66.2705 108.976 66.5213 108.566 66.5213C108.399 66.5213 108.178 66.4833 108.095 66.4453L107.973 66.9317C108.11 66.9849 108.429 67.0609 108.665 67.0609Z" fill="#75982A"/>
<path d="M114.179 67.0001H114.908L116.489 64.9633H118.017V67.0001H118.617V61.6801H116.345C115.661 61.6801 115.121 61.8929 114.794 62.2197C114.528 62.4781 114.391 62.8733 114.391 63.2837C114.391 64.1729 114.992 64.7125 115.843 64.8645L114.179 67.0001ZM116.383 64.4541C115.569 64.4541 114.992 64.0209 114.992 63.3293C114.992 62.6529 115.509 62.2197 116.383 62.2197H118.017V64.4541H116.383Z" fill="#75982A"/>
<path d="M121.827 67.0001H122.572L124.427 64.4085L125.483 65.5713V67.0001H126.083V65.5713L127.132 64.4085L128.994 67.0001H129.739L127.55 63.9601L129.602 61.6801H128.857L126.083 64.8189V61.6801H125.483V64.8189L122.709 61.6801H121.964L124.016 63.9601L121.827 67.0001Z" fill="#75982A"/>
<path d="M130.673 67.0001H134.556V66.4529H131.273V64.5909H134.176V64.0437H131.273V62.2273H134.518V61.6801H130.673V67.0001Z" fill="#75982A"/>
<path d="M135.764 67.0001H136.365V64.6061H139.435V67.0001H140.035V61.6801H139.435V64.0437H136.365V61.6801H135.764V67.0001Z" fill="#75982A"/>
<path d="M148.515 68.1857H149.017L149.108 66.4529H148.416V61.6801H147.816V66.4529H145.278V61.6801H144.677V66.4529H142.139V61.6801H141.538V67.0001H148.515V68.1857Z" fill="#75982A"/>
<path d="M149.992 67.0001H150.577L153.746 62.5845V67.0001H154.339V61.6801H153.769L150.592 66.0957V61.6801H149.992V67.0001Z" fill="#75982A"/>
<path d="M155.84 67.0001H156.441V64.6061H159.511V67.0001H160.111V61.6801H159.511V64.0437H156.441V61.6801H155.84V67.0001Z" fill="#75982A"/>
</svg>
