<svg width="26" height="26" viewBox="0 0 26 26" fill="none" xmlns="http://www.w3.org/2000/svg">
<circle cx="13" cy="13" r="13" fill="#7BAB34"/>
<path d="M20.7925 17.5114C20.8256 17.7648 20.7484 17.9851 20.5613 18.1724L18.3649 20.3537C18.2658 20.4638 18.1364 20.5576 17.9768 20.6346C17.8172 20.7117 17.6603 20.7613 17.5062 20.7833C17.4952 20.7833 17.4621 20.7862 17.407 20.7917C17.352 20.7971 17.2805 20.8 17.1924 20.8C16.9832 20.8 16.6446 20.7641 16.1767 20.6925C15.7088 20.6209 15.1363 20.4446 14.4592 20.1637C13.782 19.8828 13.0141 19.4613 12.1554 18.8995C11.2967 18.3377 10.3828 17.5665 9.41396 16.5859C8.64328 15.8258 8.00471 15.0987 7.49826 14.4046C6.99182 13.7105 6.58445 13.0688 6.27618 12.4794C5.96788 11.89 5.73668 11.3557 5.58254 10.8764C5.4284 10.3972 5.32381 9.98405 5.26876 9.63702C5.21371 9.28999 5.19169 9.01732 5.2027 8.81901C5.21371 8.62071 5.21922 8.51054 5.21922 8.4885C5.24124 8.33427 5.29078 8.17728 5.36785 8.01753C5.44492 7.85779 5.5385 7.72834 5.6486 7.62918L7.84504 5.43131C7.99918 5.27707 8.17534 5.19995 8.37351 5.19995C8.51664 5.19995 8.64325 5.24126 8.75335 5.32389C8.86345 5.40652 8.95703 5.50843 9.0341 5.62961L10.8012 8.98427C10.9003 9.16054 10.9278 9.35333 10.8837 9.56266C10.8397 9.77198 10.7461 9.94825 10.603 10.0915L9.79377 10.9012C9.77175 10.9232 9.75248 10.9591 9.73597 11.0086C9.71945 11.0582 9.7112 11.0995 9.7112 11.1326C9.75524 11.3639 9.85432 11.6283 10.0085 11.9258C10.1406 12.1902 10.3443 12.5124 10.6195 12.8925C10.8947 13.2726 11.2856 13.7105 11.792 14.2063C12.2875 14.7131 12.7279 15.1069 13.1132 15.3879C13.4985 15.6687 13.8206 15.8754 14.0793 16.0076C14.3381 16.1398 14.5362 16.2196 14.6738 16.2471L14.8802 16.2884C14.9022 16.2884 14.9381 16.2801 14.9876 16.2636C15.0371 16.2471 15.0729 16.2278 15.095 16.2058L16.0363 15.2473C16.2346 15.0711 16.4657 14.9829 16.7299 14.9829C16.9171 14.9829 17.0657 15.016 17.1758 15.0821H17.1923L20.3796 16.966C20.6109 17.1093 20.7484 17.291 20.7925 17.5114Z" fill="white"/>
</svg>
