<svg width="25" height="25" viewBox="0 0 25 25" fill="none" xmlns="http://www.w3.org/2000/svg">
<ellipse cx="19.1038" cy="5.89623" rx="5.89623" ry="5.89623" fill="#7BAB34"/>
<path d="M18.3849 8.73967H19.9925V6.70193H22.0415V5.13967H19.9925V3.10193H18.3849V5.13967H16.3358V6.70193H18.3849V8.73967Z" fill="#FFF7F7"/>
<path d="M14.2185 11.31C12.9423 10.0842 12.2361 8.45788 12.2255 6.7267H6.57271L5.68646 3.06901L0.885175 1.48608L0 3.96032L3.37405 5.07274L5.77366 14.977L6.59475 18.4597H20.8811L22.3044 12.4231C21.3333 12.9349 20.2192 13.2267 19.0351 13.2267C17.2154 13.2262 15.5048 12.5455 14.2185 11.31Z" fill="#7BAB34"/>
<path d="M9.3199 24.9999C10.8021 24.9999 12.0037 23.8464 12.0037 22.4234C12.0037 21.0005 10.8021 19.8469 9.3199 19.8469C7.83765 19.8469 6.63605 21.0005 6.63605 22.4234C6.63605 23.8464 7.83765 24.9999 9.3199 24.9999Z" fill="#7BAB34"/>
<path d="M18.156 24.9999C19.6382 24.9999 20.8398 23.8464 20.8398 22.4234C20.8398 21.0005 19.6382 19.8469 18.156 19.8469C16.6737 19.8469 15.4721 21.0005 15.4721 22.4234C15.4721 23.8464 16.6737 24.9999 18.156 24.9999Z" fill="#7BAB34"/>
</svg>
