<svg width="24" height="39" viewBox="0 0 24 39" fill="none" xmlns="http://www.w3.org/2000/svg">
<path d="M21.1931 2.6H16.4V0H7.6V2.6H2.80693C1.40626 2.6 0.266663 3.6101 0.266663 4.8516V36.7484C0.266663 37.9899 1.40626 39 2.80693 39H21.1931C22.5937 39 23.7333 37.9899 23.7333 36.7484V4.8516C23.7333 3.6101 22.5937 2.6 21.1931 2.6ZM1.73333 12.35H22.2667V20.15H1.73333V12.35ZM1.73333 21.45H22.2667V29.25H1.73333V21.45ZM9.06666 1.3H14.9333V2.6H9.06666V1.3ZM2.80693 3.9H7.6H16.4H21.1931C21.7856 3.9 22.2667 4.3264 22.2667 4.8516V11.05H1.73333V4.8516C1.73333 4.3264 2.2144 3.9 2.80693 3.9ZM21.1931 37.7H2.80693C2.2144 37.7 1.73333 37.2736 1.73333 36.7484V30.55H22.2667V36.7484C22.2667 37.2736 21.7856 37.7 21.1931 37.7Z" fill="white"/>
</svg>
