<svg width="40" height="40" viewBox="0 0 40 40" fill="none" xmlns="http://www.w3.org/2000/svg">
<path fill-rule="evenodd" clip-rule="evenodd" d="M4.90423 3.71423L0.4323 1.47821C0.0461091 1.28564 -0.110447 0.816893 0.0828019 0.431456C0.275745 0.0460191 0.745412 -0.110231 1.1316 0.0826402L5.89952 2.46637C6.14353 2.56372 6.3328 2.78131 6.38142 3.05902L7.41921 8.89062H26.8119C27.2455 8.89062 27.5972 9.24158 27.5972 9.67432C27.5972 10.1071 27.2455 10.4577 26.8119 10.4577H7.69838L10.9536 28.7463H13.4815C13.9151 28.7463 14.2667 29.0969 14.2667 29.53C14.2667 29.9627 13.9151 30.3134 13.4815 30.3134H11.2325L11.6352 32.575C12.6085 32.6101 13.4864 33.0181 14.13 33.6605C14.6266 34.1561 14.9837 34.7915 15.1366 35.5026H28.3558C28.509 34.7915 28.8661 34.1561 29.3627 33.6605C30.036 32.9882 30.9665 32.5726 31.9939 32.5726C33.0213 32.5726 33.9514 32.9882 34.6248 33.6605C35.2981 34.3325 35.7145 35.2609 35.7145 36.2863C35.7145 37.3117 35.2981 38.2403 34.6248 38.912C33.9514 39.5843 33.0213 39.9999 31.9939 39.9999C30.9665 39.9999 30.036 39.5843 29.3627 38.912C28.8658 38.4161 28.509 37.7807 28.3558 37.07H15.1366C14.9834 37.7807 14.6266 38.4161 14.1297 38.912C13.4564 39.5843 12.5262 39.9999 11.4988 39.9999C10.4714 39.9999 9.54097 39.5843 8.86766 38.912C8.19435 38.24 7.77788 37.3117 7.77788 36.2863C7.77788 35.2609 8.19435 34.3325 8.86766 33.6605C9.21441 33.3145 9.62903 33.0364 10.0898 32.8481C8.36161 23.1368 6.63307 13.4255 4.90423 3.71423ZM19.7627 30.3134H33.0989C34.0572 30.3134 34.8526 29.9368 35.461 29.3295C36.0949 28.6968 36.5117 27.8131 36.6811 26.8606L39.1679 12.8881C39.1973 12.7233 39.2117 12.5601 39.2117 12.3989C39.2117 11.5673 38.8423 10.7656 38.2693 10.1412C37.7097 9.5315 36.9465 9.08319 36.1411 8.94037C35.9567 8.90771 35.7711 8.89062 35.5861 8.89062H33.0931C32.6595 8.89062 32.3079 9.24127 32.3079 9.67401C32.3079 10.1068 32.6595 10.4577 33.0931 10.4577H35.5861C35.6821 10.4577 35.7775 10.4662 35.8714 10.483C36.3362 10.5654 36.7829 10.8309 37.1159 11.1941C37.4354 11.542 37.6412 11.9717 37.6412 12.3989C37.6412 12.4737 37.6351 12.5472 37.6222 12.619L35.1354 26.5914C35.0207 27.236 34.7523 27.8207 34.3508 28.2214C34.0264 28.5452 33.6047 28.746 33.0989 28.746H19.7627C19.3291 28.746 18.9774 29.0969 18.9774 29.5297C18.9774 29.9627 19.3291 30.3134 19.7627 30.3134ZM16.6221 28.7463C16.1885 28.7463 15.8368 29.0969 15.8368 29.5297C15.8368 29.9624 16.1885 30.3134 16.6221 30.3134C17.0556 30.3134 17.4073 29.9624 17.4073 29.5297C17.4073 29.0969 17.0556 28.7463 16.6221 28.7463ZM29.9525 8.89062C29.519 8.89062 29.1676 9.24127 29.1676 9.67401C29.1676 10.1071 29.519 10.4577 29.9525 10.4577C30.3861 10.4577 30.7378 10.1071 30.7378 9.67401C30.7378 9.24127 30.3861 8.89062 29.9525 8.89062ZM15.92 13.9208C15.0467 14.7921 14.6104 15.9402 14.6104 17.0873C14.6104 18.2345 15.0467 19.3823 15.92 20.2538L22.0391 26.3607C22.3455 26.6668 22.8427 26.6668 23.1494 26.3607L29.2685 20.2538C30.1415 19.3823 30.5782 18.2345 30.5782 17.0873C30.5782 15.9399 30.1418 14.7921 29.2685 13.9208C28.3952 13.0493 27.2452 12.6135 26.0958 12.6135C24.9461 12.6135 23.7961 13.0493 22.9231 13.9208L22.5944 14.2489L22.2654 13.9208C21.3924 13.0493 20.2424 12.6135 19.0927 12.6135C17.9433 12.6135 16.7933 13.0493 15.92 13.9208ZM19.0927 14.1808C18.3445 14.1808 17.5966 14.4634 17.0303 15.0286C16.4637 15.5941 16.1805 16.3403 16.1805 17.0873C16.1805 17.8341 16.4637 18.5803 17.0303 19.1458L22.5941 24.6987L28.1583 19.1458C28.7246 18.5803 29.0077 17.8341 29.0077 17.0873C29.0077 16.3403 28.7246 15.5941 28.1583 15.0286C27.5917 14.4634 26.8441 14.1808 26.0955 14.1808C25.3473 14.1808 24.5997 14.4634 24.0331 15.0286L23.1491 15.9109C22.8427 16.217 22.3455 16.217 22.0388 15.9109L21.1551 15.0286C20.5889 14.4634 19.8409 14.1808 19.0927 14.1808ZM33.5145 34.7683C33.1255 34.3798 32.5877 34.1397 31.9939 34.1397C31.3998 34.1397 30.8622 34.3798 30.473 34.7683C30.0837 35.1568 29.8431 35.6933 29.8431 36.2863C29.8431 36.8792 30.0837 37.4157 30.473 37.8042C30.8622 38.1924 31.3998 38.4329 31.9939 38.4329C32.5877 38.4329 33.1255 38.1924 33.5145 37.8042C33.9037 37.4157 34.1444 36.8792 34.1444 36.2863C34.1444 35.6933 33.9037 35.1568 33.5145 34.7683ZM13.0194 34.7683C12.6305 34.3798 12.0926 34.1397 11.4988 34.1397C10.9047 34.1397 10.3669 34.3798 9.97762 34.7683C9.58867 35.1568 9.34803 35.6933 9.34803 36.2863C9.34803 36.8792 9.58867 37.4157 9.97762 37.8042C10.3669 38.1924 10.9047 38.4329 11.4988 38.4329C12.0926 38.4329 12.6305 38.1924 13.0194 37.8042C13.4087 37.4157 13.6493 36.8792 13.6493 36.2863C13.6493 35.6933 13.4087 35.1568 13.0194 34.7683Z" fill="#7BAB34"/>
</svg>
