<svg width="23" height="23" viewBox="0 0 23 23" fill="none" xmlns="http://www.w3.org/2000/svg">
<circle cx="11.5" cy="11.5" r="11.5" fill="#7BAB34"/>
<path d="M6.91617 16.0838C7.02587 16.1935 7.16728 16.25 7.31756 16.25C7.46783 16.25 7.60924 16.1935 7.71895 16.0838L11.5 12.3028L15.2811 16.0838C15.3908 16.1935 15.5322 16.25 15.6824 16.25C15.8217 16.25 15.9719 16.1957 16.0838 16.0838C16.3054 15.8623 16.3054 15.5026 16.0838 15.2811L12.3028 11.5L16.0838 7.71895C16.3054 7.49739 16.3054 7.13772 16.0838 6.91617C15.8623 6.69461 15.5026 6.69461 15.2811 6.91617L11.5 10.6972L7.71895 6.91617C7.49739 6.69461 7.13772 6.69461 6.91617 6.91617C6.69461 7.13772 6.69461 7.49739 6.91617 7.71895L10.6972 11.5L6.91617 15.2811C6.69461 15.5026 6.69461 15.8623 6.91617 16.0838Z" fill="white" stroke="white" stroke-width="0.5"/>
</svg>
