<svg width="42" height="13" viewBox="0 0 42 13" fill="none" xmlns="http://www.w3.org/2000/svg">
<path d="M16.7235 0.213867L14.6008 12.6702H17.9956L20.12 0.213867H16.7235Z" fill="white"/>
<path d="M11.7544 0.227961L8.42941 8.72284L8.07491 7.44019C7.41917 5.89471 5.55761 3.67516 3.37212 2.27637L6.41243 12.6642L10.0046 12.6581L15.3509 0.225342L11.7544 0.227961Z" fill="white"/>
<path d="M6.78613 1.1194C6.58879 0.360636 6.01688 0.13449 5.30701 0.107422H0.0436575L0 0.355397C4.09595 1.34904 6.80621 3.74322 7.93083 6.622L6.78613 1.1194Z" fill="white"/>
<path d="M27.0004 2.60199C28.1111 2.58453 28.9161 2.82726 29.5413 3.07873L29.8478 3.2228L30.3071 0.523016C29.6347 0.270676 28.5808 0 27.2659 0C23.9112 0 21.5467 1.68954 21.5284 4.11079C21.5066 5.89988 23.2127 6.89876 24.5015 7.49512C25.8243 8.10633 26.2679 8.49488 26.2618 9.0406C26.2513 9.87446 25.207 10.2569 24.2317 10.2569C22.8722 10.2569 22.1501 10.0692 21.0351 9.60466L20.5976 9.40558L20.12 12.1935C20.9146 12.5419 22.3806 12.8414 23.9025 12.8571C27.4711 12.8571 29.7902 11.1877 29.8146 8.60053C29.8294 7.18515 28.924 6.10507 26.962 5.21882C25.7745 4.64079 25.0481 4.25661 25.0551 3.67334C25.0551 3.15557 25.6715 2.60199 27.0004 2.60199Z" fill="white"/>
<path d="M39.0194 0.227783H36.3964C35.5818 0.227783 34.9758 0.449563 34.6178 1.26159L29.5771 12.6772H33.1422C33.1422 12.6772 33.7237 11.1422 33.8555 10.806C34.2458 10.806 37.7096 10.8112 38.203 10.8112C38.3042 11.2461 38.6168 12.6772 38.6168 12.6772H41.7663L39.0194 0.227783ZM34.8326 8.2564C35.112 7.54129 36.1851 4.77515 36.1851 4.77515C36.1668 4.8092 36.4619 4.0548 36.6374 3.58592L36.8662 4.6599C36.8662 4.6599 37.5167 7.63385 37.6529 8.2564H34.8326Z" fill="white"/>
</svg>
