<svg width="12" height="12" viewBox="0 0 12 12" fill="none" xmlns="http://www.w3.org/2000/svg">
<path d="M8.68836 0H3.3115C1.48554 0 0 1.48561 0 3.31157V8.68843C0 10.5145 1.48554 12 3.3115 12H8.68836C10.5145 12 12 10.5144 12 8.68843V3.31157C12.0001 1.48561 10.5145 0 8.68836 0ZM10.9354 8.68843C10.9354 9.92739 9.92739 10.9353 8.68843 10.9353H3.3115C2.07261 10.9354 1.0647 9.92739 1.0647 8.68843V3.31157C1.0647 2.07268 2.07261 1.0647 3.3115 1.0647H8.68836C9.92732 1.0647 10.9353 2.07268 10.9353 3.31157V8.68843H10.9354Z" fill="white"/>
<path d="M6.00001 2.9082C4.295 2.9082 2.90791 4.29529 2.90791 6.0003C2.90791 7.70524 4.295 9.09225 6.00001 9.09225C7.70502 9.09225 9.0921 7.70524 9.0921 6.0003C9.0921 4.29529 7.70502 2.9082 6.00001 2.9082ZM6.00001 8.02748C4.88215 8.02748 3.97261 7.11809 3.97261 6.00023C3.97261 4.8823 4.88208 3.97283 6.00001 3.97283C7.11794 3.97283 8.02741 4.8823 8.02741 6.00023C8.02741 7.11809 7.11787 8.02748 6.00001 8.02748Z" fill="white"/>
<path d="M9.22177 2.00513C9.01664 2.00513 8.81513 2.08817 8.67026 2.23368C8.52468 2.37848 8.44099 2.58006 8.44099 2.78591C8.44099 2.99111 8.52475 3.19262 8.67026 3.33813C8.81506 3.48293 9.01664 3.56668 9.22177 3.56668C9.42762 3.56668 9.62849 3.48293 9.774 3.33813C9.91951 3.19262 10.0026 2.99104 10.0026 2.78591C10.0026 2.58006 9.91951 2.37848 9.774 2.23368C9.6292 2.08817 9.42762 2.00513 9.22177 2.00513Z" fill="white"/>
</svg>
