<svg width="42" height="12" viewBox="0 0 42 12" fill="none" xmlns="http://www.w3.org/2000/svg">
<path fill-rule="evenodd" clip-rule="evenodd" d="M37.2857 0H29.3143C29.7429 2.65714 32.3143 5.14286 35.1429 5.14286H41.4857C41.5714 4.88571 41.5714 4.54286 41.5714 4.28571C41.5714 1.88571 39.6857 0 37.2857 0Z" fill="white"/>
<path fill-rule="evenodd" clip-rule="evenodd" d="M30 5.57153V12.0001H33.8571V8.57153H37.2857C39.1714 8.57153 40.8 7.28582 41.3143 5.57153H30Z" fill="white"/>
<path fill-rule="evenodd" clip-rule="evenodd" d="M16.2857 0V12H19.7143C19.7143 12 20.5714 12 21 11.1429C23.3143 6.51429 24 5.14286 24 5.14286H24.4286V12H28.2857V0H24.8571C24.8571 0 24 0.0857143 23.5714 0.857143C21.6 4.8 20.5714 6.85714 20.5714 6.85714H20.1429V0H16.2857Z" fill="white"/>
<path fill-rule="evenodd" clip-rule="evenodd" d="M0 12V0H3.85714C3.85714 0 4.97143 0 5.57143 1.71429C7.11429 6.25714 7.28571 6.85714 7.28571 6.85714C7.28571 6.85714 7.62857 5.74286 9 1.71429C9.6 0 10.7143 0 10.7143 0H14.5714V12H10.7143V5.57143H10.2857L8.14286 12H6.42857L4.28571 5.57143H3.85714V12H0Z" fill="white"/>
</svg>
