<svg width="61" height="60" viewBox="0 0 61 60" fill="none" xmlns="http://www.w3.org/2000/svg">
<g filter="url(#filter0_d)">
<rect width="52" height="52" rx="5" transform="matrix(-1 0 0 1 56.8448 0)" fill="#7BAB34"/>
</g>
<path d="M23.2406 26.9901L31.538 35.5895C32.0658 36.1368 32.9216 36.1368 33.4491 35.5895C33.9767 35.0427 33.9767 34.1558 33.4491 33.609L26.1072 25.9999L33.4489 18.391C33.9765 17.8439 33.9765 16.9571 33.4489 16.4103C32.9213 15.8632 32.0656 15.8632 31.5378 16.4103L23.2404 25.0098C22.9766 25.2834 22.8448 25.6415 22.8448 25.9998C22.8448 26.3583 22.9769 26.7167 23.2406 26.9901Z" fill="white"/>
<defs>
<filter id="filter0_d" x="0.844849" y="0" width="60" height="60" filterUnits="userSpaceOnUse" color-interpolation-filters="sRGB">
<feFlood flood-opacity="0" result="BackgroundImageFix"/>
<feColorMatrix in="SourceAlpha" type="matrix" values="0 0 0 0 0 0 0 0 0 0 0 0 0 0 0 0 0 0 127 0"/>
<feOffset dy="4"/>
<feGaussianBlur stdDeviation="2"/>
<feColorMatrix type="matrix" values="0 0 0 0 0 0 0 0 0 0 0 0 0 0 0 0 0 0 0.25 0"/>
<feBlend mode="normal" in2="BackgroundImageFix" result="effect1_dropShadow"/>
<feBlend mode="normal" in="SourceGraphic" in2="effect1_dropShadow" result="shape"/>
</filter>
</defs>
</svg>
