<svg width="45" height="45" viewBox="0 0 102 102" fill="none" xmlns="http://www.w3.org/2000/svg">
<path d="M51 102C79.1665 102 102 79.1665 102 51C102 22.8335 79.1665 0 51 0C22.8335 0 0 22.8335 0 51C0 79.1665 22.8335 102 51 102Z" fill="#7BAB34"/>
<path d="M54.2018 24.7455L60.6385 37.9071C61.1152 38.7899 61.9894 39.4319 62.9429 39.5924L77.3261 41.679C79.8689 42.0803 80.902 45.2102 79.0743 46.9758L68.6644 57.168C67.9492 57.8903 67.6314 58.9336 67.7903 59.8966L70.2537 74.3422C70.651 76.9104 68.0287 78.8365 65.8037 77.6327L52.9304 70.8111C52.0562 70.3296 50.9437 70.3296 50.0696 70.8111L37.1963 77.6327C34.8919 78.8365 32.2695 76.9104 32.7463 74.3422L35.2097 59.8966C35.3686 58.8533 35.0508 57.81 34.3356 57.168L23.9257 46.9758C22.098 45.1299 23.1311 42 25.6739 41.679L40.0571 39.5924C41.0901 39.4319 41.9642 38.7899 42.3615 37.9071L48.6393 24.7455C49.8312 22.4182 53.0893 22.4182 54.2018 24.7455Z" fill="white"/>
</svg>
