<svg width="82" height="82" viewBox="0 0 82 82" fill="none" xmlns="http://www.w3.org/2000/svg">
<path d="M11.0591 49.1669C11.1536 48.8815 11.2885 48.5741 11.8283 48.5741H11.8418C12.9483 48.5741 14.0413 48.5741 15.1479 48.5741H16.8616H17.7252V40.3194C17.7252 34.326 17.7252 28.3106 17.7252 22.3172C17.7252 21.3293 17.8871 21.0659 18.4944 21C18.6158 21 18.7508 21 18.8857 21C18.9397 21 18.9937 21 19.0611 21H23.8111C28.2506 21 32.6767 21 37.1162 21H42.082C48.2219 21 54.3482 21 60.488 21C61.608 21 61.689 21.1317 61.7024 22.9759C61.7024 23.4149 61.7024 23.854 61.7024 24.2931L61.689 48.5741H63.0114C63.5916 48.5741 64.1719 48.5741 64.7521 48.5741C66.196 48.5741 67.6938 48.596 69.1647 48.5521C69.7449 48.5302 70.0283 48.7936 70.2307 49.2108V49.9133L69.8124 50.7695C69.4076 51.5818 69.0028 52.416 68.6114 53.2283C66.0745 58.4753 62.8629 61 58.7877 61C52.9583 60.978 47.0209 60.978 41.2859 60.978C39.0324 60.978 36.7789 60.978 34.5254 60.978H33.9451C30.0453 60.978 26.1455 60.978 22.2592 60.978H22.2457C19.6009 60.978 17.2934 59.7706 15.1748 57.2898C13.9199 55.8189 12.9888 53.9089 11.9902 51.8891C11.7608 51.4062 11.5179 50.9232 11.2885 50.4621C10.9242 49.7816 10.9782 49.4523 11.0591 49.1669ZM13.704 52.1965C14.4597 53.9528 15.4447 55.4018 16.7267 56.6531C18.3729 58.2777 20.2351 59.0461 22.3807 59.0461H33.9451C36.6979 59.0461 39.4507 59.0461 42.2035 59.0461C47.7496 59.0461 53.2956 59.0461 58.8552 59.0461C62.2962 59.0461 65.1299 56.9605 67.262 52.8551C67.3295 52.7234 67.4104 52.5697 67.4779 52.416C67.5859 52.1745 67.5994 51.933 67.5994 51.8233C67.5994 51.8013 67.5994 51.8013 67.5994 51.7794L67.7073 50.6378H53.3361V48.5302H60.461V23.0198H29.9374V34.1504H28.6824V22.9978H18.9532V48.5302H28.6824V37.3776H29.9374V48.5302H51.339V50.6378H13.0293L13.704 52.1965Z" fill="#575757"/>
<path d="M67.9841 68.6468L10.3532 15.984L12.7142 13.4003L70.345 66.063L67.9841 68.6468Z" fill="#7BAB34" stroke="white" stroke-width="0.5"/>
<path d="M41 78.25C61.5726 78.25 78.25 61.5726 78.25 41C78.25 20.4274 61.5726 3.75 41 3.75C20.4274 3.75 3.75 20.4274 3.75 41C3.75 61.5726 20.4274 78.25 41 78.25ZM81.75 41C81.75 63.5056 63.5056 81.75 41 81.75C18.4944 81.75 0.25 63.5056 0.25 41C0.25 18.4944 18.4944 0.25 41 0.25C63.5056 0.25 81.75 18.4944 81.75 41Z" fill="#7BAB34" stroke="white" stroke-width="0.5"/>
</svg>
