<svg width="82" height="82" viewBox="0 0 82 82" fill="none" xmlns="http://www.w3.org/2000/svg">
<path d="M61.1721 58.4644C60.7899 57.8924 60.3671 57.4308 60.107 57.168C60.6996 50.7133 60.3923 46.0916 60.0257 43.3353C59.7401 41.1872 59.3761 39.8024 59.1738 39.1393C59.8909 38.4473 60.3403 37.4637 60.3403 36.3733V31.9411C60.3403 29.9491 58.842 28.3125 56.9471 28.164L51.6818 22.6084C50.7989 21.6767 49.6901 20.9917 48.4753 20.6273C48.1364 20.5257 47.7817 20.7266 47.6831 21.0762C47.5845 21.4258 47.7794 21.7917 48.1184 21.8934C49.1221 22.1944 50.0382 22.7604 50.7676 23.5301L55.1477 28.1518H26.6311L28.2997 25.7635C29.1506 24.5455 30.3988 23.6821 31.8143 23.3324L34.0876 22.7706C34.7129 22.6161 35.3165 22.3773 35.8816 22.0611L37.6498 21.0717C39.2917 20.1528 41.2921 20.0686 43.0011 20.8463C43.671 21.1511 44.3792 21.3506 45.1062 21.4393L45.7051 21.5123C46.0562 21.5551 46.3735 21.2967 46.415 20.9351C46.4564 20.5735 46.2058 20.2457 45.8553 20.2029L45.2564 20.1299C44.6557 20.0567 44.0705 19.8919 43.5171 19.64C41.4486 18.6988 39.0274 18.8007 37.0402 19.9127L35.2719 20.9022C34.8051 21.1634 34.3064 21.3607 33.7897 21.4884L31.5165 22.0499C29.8033 22.4732 28.2925 23.5182 27.2626 24.9924L25.0436 28.1683C23.1762 28.3454 21.7088 29.9694 21.7088 31.9408V36.3731C21.7088 37.4633 22.1581 38.4468 22.875 39.1388C22.6734 39.7983 22.3123 41.1719 22.0263 43.3135C21.3673 48.2478 21.6072 53.5131 21.9423 57.1677C21.6822 57.4306 21.2594 57.8921 20.877 58.4643C20.0241 59.7408 19.7874 60.9556 20.1928 61.9775C20.4294 62.5743 20.8511 62.9966 21.4123 63.1991C22.5632 63.6144 24.0063 62.9963 24.5887 62.7023C25.6728 62.9971 30.1592 64 41.0247 64C51.8902 64 56.3766 62.9972 57.4607 62.7023C58.043 62.9962 59.4861 63.6142 60.637 63.1991C61.1981 62.9967 61.6198 62.5743 61.8566 61.9776C62.2617 60.9559 62.0251 59.741 61.1721 58.4644ZM60.6734 61.4783C60.574 61.7287 60.4331 61.8755 60.2162 61.9541C59.4946 62.2155 58.2276 61.6423 57.8414 61.4213C57.6868 61.3322 57.5017 61.3137 57.333 61.3694C55.9591 61.8233 50.7827 62.6815 41.0246 62.6815C31.2666 62.6815 26.0901 61.8233 24.7178 61.37C24.549 61.3133 24.364 61.332 24.2087 61.4208C23.8217 61.6423 22.5548 62.2156 21.8331 61.9542C21.6163 61.8756 21.4754 61.7289 21.3759 61.4784C20.8796 60.2269 22.4 58.489 23.0272 57.9254C23.1839 57.7853 23.265 57.5754 23.2447 57.3625C22.6267 50.8978 22.9243 46.2931 23.2827 43.5686C23.5143 41.8079 23.8004 40.5848 23.9944 39.8823C23.9913 39.8946 24.2477 39.9771 24.2748 39.9861C24.6323 40.1041 25.0073 40.1625 25.3826 40.1625H28.6112C28.9642 40.1625 29.2504 39.8674 29.2504 39.5032C29.2504 39.1471 28.9571 38.844 28.6112 38.844H25.3825C25.2605 38.844 25.1368 38.8346 25.0162 38.815C23.864 38.6282 22.987 37.576 22.987 36.3732V31.9409C22.987 30.5785 24.0616 29.4703 25.3823 29.4703H56.6664C57.9873 29.4703 59.0617 30.5787 59.0617 31.9409V36.3732C59.0617 37.2108 58.6551 37.952 58.0352 38.399C57.6363 38.6867 57.1532 38.844 56.6663 38.844H31.1678C30.8238 38.844 30.5286 39.1477 30.5286 39.5032C30.5286 39.8674 30.8148 40.1625 31.1678 40.1625H56.6666C57.1414 40.1625 57.6151 40.0681 58.0548 39.8823C58.2486 40.5842 58.5342 41.8048 58.7656 43.5614C59.4161 48.4993 59.1458 53.7921 58.8046 57.3626C58.7842 57.5755 58.8652 57.7855 59.022 57.9255C59.0279 57.9308 59.6178 58.4616 60.1197 59.2127C60.5354 59.8348 60.969 60.7329 60.6734 61.4783Z" fill="#575757" stroke="#575757" stroke-width="0.5"/>
<path d="M67.9841 68.6468L10.3532 15.984L12.7142 13.4003L70.345 66.063L67.9841 68.6468Z" fill="#7BAB34" stroke="white" stroke-width="0.5"/>
<path d="M41 78.25C61.5726 78.25 78.25 61.5726 78.25 41C78.25 20.4274 61.5726 3.75 41 3.75C20.4274 3.75 3.75 20.4274 3.75 41C3.75 61.5726 20.4274 78.25 41 78.25ZM81.75 41C81.75 63.5056 63.5056 81.75 41 81.75C18.4944 81.75 0.25 63.5056 0.25 41C0.25 18.4944 18.4944 0.25 41 0.25C63.5056 0.25 81.75 18.4944 81.75 41Z" fill="#7BAB34" stroke="white" stroke-width="0.5"/>
</svg>
