<svg width="82" height="82" viewBox="0 0 82 82" fill="none" xmlns="http://www.w3.org/2000/svg">
<path d="M62.162 40.9718H51.3873L51.7782 40.4648C52.2852 39.7993 52.5599 38.9648 52.5599 38.1197V31.7077C52.2113 31.6972 51.8521 31.6866 51.5035 31.6655V38.1092C51.5035 39.6831 50.2254 40.9613 48.6514 40.9613H33.4296C31.8556 40.9613 30.5775 39.6831 30.5775 38.1092V22.8979C30.5775 21.3239 31.8556 20.0458 33.4296 20.0458H48.6409C50.2148 20.0458 51.493 21.3239 51.493 22.8979V29.3732C51.8416 29.3944 52.2007 29.4049 52.5493 29.4155V22.9085C52.5493 20.7535 50.7958 19 48.6409 19H33.4296C31.2746 19 29.5211 20.7535 29.5211 22.9085V38.1197C29.5211 38.9648 29.7958 39.7993 30.3028 40.4648L30.6937 40.9718H19.9085C17.7535 40.9718 16 42.7254 16 44.8803V60.0915C16 62.2465 17.7535 64 19.9085 64H26.2993C26.3204 63.6514 26.331 63.2923 26.3099 62.9437H19.9085C18.3345 62.9437 17.0563 61.6655 17.0563 60.0915V44.8803C17.0563 43.3063 18.3345 42.0282 19.9085 42.0282H35.1197C36.6937 42.0282 37.9718 43.3063 37.9718 44.8803V60.0915C37.9718 61.6655 36.6937 62.9437 35.1197 62.9437H28.6021C28.6232 63.2923 28.6127 63.6514 28.5916 64H35.1197C37.2747 64 39.0282 62.2465 39.0282 60.0915V44.8803C39.0282 44.0352 38.7535 43.2113 38.2465 42.5352L37.8556 42.0282H44.2042L43.8134 42.5352C43.3063 43.2007 43.0317 44.0352 43.0317 44.8803V60.0915C43.0317 62.2465 44.7852 64 46.9401 64H62.1514C64.3063 64 66.0599 62.2465 66.0599 60.0915V44.8803C66.0704 42.7254 64.3169 40.9718 62.162 40.9718ZM65.0141 60.0915C65.0141 61.6655 63.7359 62.9437 62.162 62.9437H46.9507C45.3768 62.9437 44.0986 61.6655 44.0986 60.0915V44.8803C44.0986 43.3063 45.3768 42.0282 46.9507 42.0282H62.162C63.7359 42.0282 65.0141 43.3063 65.0141 44.8803V60.0915Z" fill="#575757" stroke="#575757"/>
<path d="M67.9841 68.6468L10.3532 15.984L12.7142 13.4003L70.345 66.063L67.9841 68.6468Z" fill="#7BAB34" stroke="white" stroke-width="0.5"/>
<path d="M41 78.25C61.5726 78.25 78.25 61.5726 78.25 41C78.25 20.4274 61.5726 3.75 41 3.75C20.4274 3.75 3.75 20.4274 3.75 41C3.75 61.5726 20.4274 78.25 41 78.25ZM81.75 41C81.75 63.5056 63.5056 81.75 41 81.75C18.4944 81.75 0.25 63.5056 0.25 41C0.25 18.4944 18.4944 0.25 41 0.25C63.5056 0.25 81.75 18.4944 81.75 41Z" fill="#7BAB34" stroke="white" stroke-width="0.5"/>
</svg>
