<svg width="82" height="82" viewBox="0 0 82 82" fill="none" xmlns="http://www.w3.org/2000/svg">
<path d="M29.128 56.166C26.9724 52.4825 26.7158 47.8652 28.4095 44.7005L41.3947 20.9392L48.2723 33.598C48.7342 33.5462 49.1961 33.4943 49.6067 33.4424L41.908 19.3309C41.754 19.0196 41.3434 18.9159 41.0354 19.0715C40.9328 19.1234 40.8301 19.2271 40.7788 19.3309L27.2803 44.0779C25.33 47.6576 25.6379 52.7938 27.9989 56.8405C29.0254 58.6044 30.9757 61.0947 34.3632 62.6511V61.1985C31.643 59.7458 30.0006 57.6706 29.128 56.166Z" fill="#575757" stroke="#575757"/>
<path d="M55.5091 44.0779L51.3005 36.3996C50.8385 36.4515 50.4279 36.5034 49.966 36.6071L54.38 44.7005C56.125 47.8652 55.8171 52.4825 53.6614 56.1661C52.2243 58.6044 48.7342 62.7549 41.3947 62.7549C40.009 62.7549 38.7258 62.5992 37.5967 62.3398V63.6368C38.7258 63.8962 40.009 64 41.3947 64C49.3501 64 53.1995 59.4864 54.7906 56.7886C57.1515 52.7938 57.4595 47.6577 55.5091 44.0779Z" fill="#575757" stroke="#575757"/>
<path d="M50.4793 48.384C50.12 48.384 49.8634 48.6953 49.8634 49.0066C49.8634 53.7277 46.0654 57.515 41.4461 57.515C41.0868 57.515 40.8302 57.8263 40.8302 58.1376C40.8302 58.4488 41.1381 58.7601 41.4461 58.7601C46.7839 58.8639 51.0952 54.454 51.0952 49.0066C51.0952 48.6953 50.8386 48.384 50.4793 48.384Z" fill="#575757" stroke="#575757"/>
<path d="M67.9841 68.6468L10.3532 15.984L12.7142 13.4003L70.345 66.063L67.9841 68.6468Z" fill="#7BAB34" stroke="white" stroke-width="0.5"/>
<path d="M41 78.25C61.5726 78.25 78.25 61.5726 78.25 41C78.25 20.4274 61.5726 3.75 41 3.75C20.4274 3.75 3.75 20.4274 3.75 41C3.75 61.5726 20.4274 78.25 41 78.25ZM81.75 41C81.75 63.5056 63.5056 81.75 41 81.75C18.4944 81.75 0.25 63.5056 0.25 41C0.25 18.4944 18.4944 0.25 41 0.25C63.5056 0.25 81.75 18.4944 81.75 41Z" fill="#7BAB34" stroke="white" stroke-width="0.5"/>
</svg>
