<svg width="26" height="28" viewBox="0 0 26 28" fill="none" xmlns="http://www.w3.org/2000/svg">
<path fill-rule="evenodd" clip-rule="evenodd" d="M12.6933 28C9.98867 28 4.9955 23.4171 1.88963 16.5808C-1.51345 9.12017 0.70078 0.80696 0.789944 0.45677L0.92369 0L1.33979 0.197934C1.65186 0.35019 9.29022 3.94345 12.6933 11.4192C16.1707 19.0778 16.0221 26.6449 13.5701 27.8173C13.3175 27.9391 13.0202 28 12.6933 28Z" fill="#7BAB34"/>
<path fill-rule="evenodd" clip-rule="evenodd" d="M25.2423 1.16663C25.2423 1.16663 17.541 4.67875 14.2112 11.8956C14.1965 11.9253 14.1965 11.9549 14.1818 11.9697C14.6219 12.9774 15.018 14.0148 15.3407 15.0225C15.7954 13.7925 17.7171 9.3764 22.8072 5.31597C22.8072 5.31597 17.7611 10.2507 15.8248 16.6674C16.9396 20.8908 16.9689 24.8179 15.8688 26.8333C18.4505 25.3958 21.8537 21.6614 24.1861 16.5933C27.516 9.3764 25.2423 1.16663 25.2423 1.16663Z" fill="#75982A"/>
</svg>
