<svg width="96" height="82" viewBox="0 0 96 82" fill="none" xmlns="http://www.w3.org/2000/svg">
<ellipse cx="53.5" cy="41" rx="42.5" ry="41" fill="#EBFBBE"/>
<path d="M58.9979 51.0015H1.00194C0.449991 51.0015 0.00198364 51.4484 0.00198364 52.0014C0.00198364 63.5796 9.42138 73 21.0005 73H38.9993C50.5775 73 59.9979 63.5796 59.9979 52.0014C59.9979 51.4484 59.5509 51.0015 58.9979 51.0015ZM38.9993 71.0001H21.0005C10.8602 71.0001 2.54975 63.0146 2.0278 53.0013H57.9719C57.4501 63.0146 49.1397 71.0001 38.9993 71.0001Z" fill="black"/>
<path d="M51.0026 27.0093C51.0026 26.9363 51.0015 26.8632 50.9946 26.7523C50.8406 25.0944 49.7008 23.7325 48.1958 23.2215L49.3278 22.0896C51.2906 20.1668 51.4876 17.091 49.7697 14.9192C47.9298 12.6833 44.614 12.3653 42.3791 14.2042C42.2521 14.3092 42.1292 14.4202 42.0061 14.5432L40.7763 15.7912C40.2603 14.2942 38.8954 13.1623 37.2135 13.0063C34.9987 12.8854 33.1238 14.5852 33.0049 16.787C33.0009 16.86 32.9998 16.933 32.9998 17.005V18.5379C32.4119 18.1969 31.7309 18.001 31.004 17.9999C30.932 17.9999 30.858 18.0019 30.747 18.0079C28.6092 18.2069 26.9643 20.0438 27.0003 22.1735V23.5335C26.4003 23.1865 25.7164 23.0005 25.0045 22.9995C24.9325 22.9995 24.8595 23.0015 24.7485 23.0074C22.6096 23.2064 20.9648 25.0433 21.0008 27.1732V42.0022C21.0008 42.5552 21.4488 43.0022 22.0007 43.0022H38.9996C41.2054 43.0022 42.9993 41.2083 42.9982 39.0044C42.9982 38.2765 42.8032 37.5935 42.4613 37.0046H43.8122C45.96 37.0636 47.7969 35.3947 47.9979 33.2178C48.0409 32.4039 47.8369 31.6339 47.451 30.98C48.3489 30.8801 49.1799 30.483 49.8278 29.8371C50.5835 29.0831 51.0015 28.0792 51.0026 27.0093ZM48.4157 28.4211C48.0378 28.7971 47.5368 29.0041 47.0018 29.0041C47.0008 29.0041 46.9998 29.0041 46.9988 29.0041H43.999C43.446 29.0041 42.9991 29.4521 42.9991 30.0041C42.9991 30.5561 43.446 31.0041 43.999 31.0041L44.1091 31.0071C45.211 31.0661 46.0589 32.01 46.0029 33.0719C45.901 34.1739 44.966 35.0269 43.8291 35.0038H38.9995C38.4464 35.0038 37.9995 35.4518 37.9995 36.0037C37.9995 36.5557 38.4464 37.0037 38.9995 37.0037C40.1024 37.0037 40.9994 37.9006 40.9994 39.0036C40.9994 40.1066 40.1024 41.0035 38.9995 41.0035H23.0005V27.1562C22.9815 26.0493 23.8314 25.1024 24.8943 25.0023L25.0033 24.9993C26.1043 25.0002 26.9991 25.8962 27.0002 26.9961V27.0032C27.0002 27.5551 27.4471 28.0031 27.9991 28.0031C28.0001 28.0031 28.0001 28.0031 28.0001 28.0031C28.5521 28.0031 28.999 27.5562 29.0001 27.0042V27.0033V22.1565C28.9811 21.0496 29.8311 20.1027 30.894 20.0026L31.002 19.9996C32.1039 20.0016 32.9989 20.8975 32.9999 21.9985V22.0044C32.9999 22.5564 33.4469 23.0044 33.9988 23.0044C33.9999 23.0044 33.9999 23.0044 33.9999 23.0044C34.5518 23.0044 34.9988 22.5574 34.9999 22.0055V22.0044V17.0049L35.0029 16.8939C35.0609 15.7929 35.9828 14.9451 37.0668 15C38.1707 15.103 39.0196 16.0499 38.9986 17.1758V18.0058C38.9986 18.4108 39.2437 18.7767 39.6196 18.9307C39.9926 19.0847 40.4266 18.9967 40.7105 18.7068L43.4233 15.9539C43.4972 15.8809 43.5733 15.8119 43.6523 15.747C45.0361 14.6091 47.087 14.807 48.2149 16.1749C49.2829 17.5268 49.1598 19.4547 47.922 20.6677L45.2922 23.2975C45.0062 23.5834 44.9202 24.0134 45.0751 24.3874C45.2291 24.7604 45.5951 25.0044 45.9991 25.0044H46.829C46.8499 25.0044 46.8649 25.0044 46.8819 25.0044C47.9739 25.0044 48.9018 25.8464 48.9997 26.8983L49.0028 27.0083C49.0016 27.5422 48.7937 28.0441 48.4157 28.4211Z" fill="black"/>
<path d="M43.2929 19.2945L15.2953 47.292L16.7094 48.7061L44.7069 20.7085L43.2929 19.2945Z" fill="black"/>
<path d="M38.9975 21.0095H36.9975V26.0092H38.9975V21.0095Z" fill="black"/>
<path d="M32.9978 26.0093H30.9979V32.0089H32.9978V26.0093Z" fill="black"/>
<path d="M26.9982 30.9988H24.9983V37.9983H26.9982V30.9988Z" fill="black"/>
<path d="M42.9971 25.0093H37.9974V27.0091H42.9971V25.0093Z" fill="black"/>
<path d="M37.9975 30.9988H31.9979V32.9986H37.9975V30.9988Z" fill="black"/>
<path d="M32.9977 36.9985H25.9982V38.9985H32.9977V36.9985Z" fill="black"/>
<path d="M18.6657 17.6258C18.6648 17.6238 18.6627 17.6218 18.6617 17.6198C17.2508 15.5069 14.383 14.9329 12.2712 16.3438C12.2052 16.3869 12.1401 16.4328 12.0662 16.4879L11.7062 16.7619L11.3603 16.5128C9.53039 14.806 6.65355 14.875 4.91168 16.6829C4.05879 17.5668 3.60083 18.7307 3.62379 19.9597C3.64676 21.1886 4.14575 22.3345 5.02875 23.1864C5.28574 23.4344 5.57168 23.6524 5.87965 23.8343L6.72164 24.4923V25.0043C6.72164 27.7612 8.96449 30.004 11.7213 30.004C14.4781 30.004 16.721 27.7601 16.7199 25.0034V24.4914L17.6049 23.8005C19.5197 22.3475 19.9847 19.6347 18.6657 17.6258ZM16.3849 22.2165L15.105 23.2164C14.863 23.4054 14.721 23.6964 14.721 24.0044V25.0043C14.721 26.6582 13.3751 28.0041 11.7212 28.0041C10.0673 28.0041 8.72144 26.6582 8.72144 25.0043V24.0044C8.72144 23.6964 8.58047 23.4054 8.33742 23.2164L7.0575 22.2165C7.01953 22.1865 6.97851 22.1595 6.93656 22.1355C6.74859 22.0285 6.57457 21.8985 6.41859 21.7475C5.91867 21.2655 5.6366 20.6176 5.6236 19.9236C5.61059 19.2296 5.86957 18.5717 6.35156 18.0717C6.86051 17.5437 7.54148 17.2777 8.22339 17.2777C8.87332 17.2777 9.52429 17.5186 10.0283 18.0057C10.0623 18.0377 10.0983 18.0687 10.1373 18.0966L11.1373 18.8166C11.4933 19.0736 11.9762 19.0676 12.3262 18.8016L13.3802 18.0087C13.9602 17.6207 14.6551 17.4848 15.3391 17.6198C16.021 17.7557 16.61 18.1488 16.997 18.7267C17.7389 19.8606 17.4749 21.3885 16.3849 22.2165Z" fill="black"/>
<path d="M23.9984 14H21.9985V15.9998H23.9984V14Z" fill="black"/>
<path d="M29.998 45.9978H27.9982V47.9976H29.998V45.9978Z" fill="black"/>
<path d="M53.9984 19.0046V21.0046C55.1013 21.0046 55.9983 21.9015 55.9983 23.0044C55.9983 24.1072 55.1013 25.0043 53.9984 25.0043V27.0041C56.2042 27.0041 57.9981 25.2102 57.9981 23.0044C57.9981 20.7985 56.2042 19.0046 53.9984 19.0046Z" fill="black"/>
<path d="M3.99973 28.009H1.99993V30.009H3.99973V28.009Z" fill="black"/>
<path d="M2.00178 24.0093H0.00198364V26.0092H2.00178V24.0093Z" fill="black"/>
<path d="M38.9993 45.002C36.7935 45.002 34.9996 46.7959 34.9996 49.0017H36.9995C36.9995 47.8987 37.8965 47.0018 38.9993 47.0018C40.1023 47.0018 40.9993 47.8987 40.9993 49.0017H42.9991C42.9991 46.7959 41.2052 45.002 38.9993 45.002Z" fill="black"/>
<path d="M12.0013 36.0024H11.8753C11.4293 34.2796 9.86235 33.0027 8.00154 33.0027C6.14072 33.0027 4.57275 34.2796 4.12779 36.0024H4.00182C1.796 36.0024 0.00209808 37.7963 0.00209808 40.0022C0.00209808 42.208 1.796 44.0019 4.00182 44.0019H12.0013C14.2071 44.0019 16.001 42.208 16.001 40.0022C16.001 37.7963 14.2071 36.0024 12.0013 36.0024ZM12.0013 42.003H4.0017C2.89873 42.003 2.00178 41.1061 2.00178 40.0032C2.00178 38.9003 2.89873 38.0033 4.0017 38.0033H5.00166C5.55361 38.0033 6.00162 37.5553 6.00162 37.0033C6.00162 35.9004 6.89857 35.0035 8.00154 35.0035C9.1045 35.0035 10.0015 35.9005 10.0015 37.0033C10.0015 37.5553 10.4495 38.0033 11.0014 38.0033H12.0014C13.1043 38.0033 14.0013 38.9003 14.0013 40.0032C14.0011 41.1062 13.1041 42.003 12.0013 42.003Z" fill="black"/>
<path d="M10.0013 42.0022H6.00161C5.44966 42.0022 5.00166 42.4502 5.00166 43.0022V47.0019C5.00166 47.5549 5.44966 48.0018 6.00161 48.0018H10.0013C10.5533 48.0018 11.0013 47.5549 11.0013 47.0019V43.0022C11.0013 42.4502 10.5533 42.0022 10.0013 42.0022ZM9.00137 46.0019H7.00157V44.0021H9.00149V46.0019H9.00137Z" fill="black"/>
<path d="M52.9984 39.0024C51.3446 39.0024 49.9987 40.3483 49.9987 42.0022C49.9987 43.6561 51.3446 45.002 52.9984 45.002C54.6523 45.002 55.9982 43.6561 55.9982 42.0022C55.9982 40.3483 54.6523 39.0024 52.9984 39.0024ZM52.9984 43.0031C52.4465 43.0031 51.9985 42.5542 51.9985 42.0031C51.9985 41.4521 52.4465 41.0032 52.9984 41.0032C53.5504 41.0032 53.9984 41.4512 53.9984 42.0031C53.9984 42.5552 53.5504 43.0031 52.9984 43.0031Z" fill="black"/>
<path d="M52.9984 35.0027C49.1397 35.0027 45.9989 38.1425 45.9989 42.0022C45.9989 45.8619 49.1397 49.0017 52.9984 49.0017C56.8572 49.0017 59.9979 45.8619 59.9979 42.0022C59.9979 38.1425 56.8572 35.0027 52.9984 35.0027ZM52.9984 47.0028C50.2416 47.0028 47.9987 44.759 47.9987 42.0031C47.9987 39.2463 50.2416 37.0034 52.9984 37.0034C55.7552 37.0034 57.9981 39.2463 57.9981 42.0031C57.9981 44.7599 55.7552 47.0028 52.9984 47.0028Z" fill="black"/>
</svg>
