<svg width="22" height="22" viewBox="0 0 22 22" fill="none" xmlns="http://www.w3.org/2000/svg">
<path d="M0.223256 21.3953C0.372093 21.5442 0.55814 21.6186 0.762791 21.6186C0.967442 21.6186 1.15349 21.5442 1.30233 21.3953L10.8093 11.8884L20.3163 21.3953C20.4651 21.5442 20.6512 21.6186 20.8558 21.6186C21.0419 21.6186 21.2465 21.5442 21.3953 21.3953C21.693 21.0977 21.693 20.614 21.3953 20.3163L11.8884 10.8093L21.3953 1.30233C21.693 1.00465 21.693 0.52093 21.3953 0.223256C21.0977 -0.0744186 20.614 -0.0744186 20.3163 0.223256L10.8093 9.73023L1.30233 0.223256C1.00465 -0.0744186 0.52093 -0.0744186 0.223256 0.223256C-0.0744186 0.52093 -0.0744186 1.00465 0.223256 1.30233L9.73023 10.8093L0.223256 20.3163C-0.0744186 20.614 -0.0744186 21.0977 0.223256 21.3953Z" fill="#7BAB34"/>
</svg>
