<svg width="25" height="25" viewBox="0 0 25 25" fill="none" xmlns="http://www.w3.org/2000/svg">
<path d="M9.31996 25.0002C10.8022 25.0002 12.0038 23.8466 12.0038 22.4237C12.0038 21.0007 10.8022 19.8472 9.31996 19.8472C7.83771 19.8472 6.63611 21.0007 6.63611 22.4237C6.63611 23.8466 7.83771 25.0002 9.31996 25.0002Z" fill="#7BAB34"/>
<path d="M18.1559 25.0002C19.6381 25.0002 20.8397 23.8466 20.8397 22.4237C20.8397 21.0007 19.6381 19.8472 18.1559 19.8472C16.6736 19.8472 15.472 21.0007 15.472 22.4237C15.472 23.8466 16.6736 25.0002 18.1559 25.0002Z" fill="#7BAB34"/>
<path d="M14.2185 11.31C12.9423 10.0842 12.2361 8.45788 12.2255 6.7267H6.5727L5.68646 3.06901L0.885175 1.48608L0 3.96032L3.37405 5.07274L5.77366 14.977L6.59475 18.4597H20.8811L22.3044 12.4231C21.3333 12.9349 20.2192 13.2267 19.0351 13.2267C17.2154 13.2262 15.5048 12.5455 14.2185 11.31Z" fill="#7BAB34"/>
<path d="M19 0C15.6864 0 13 2.68634 13 6C13 9.31367 15.6864 12 19 12C22.3139 12 25 9.31367 25 6C25 2.68634 22.3138 0 19 0ZM17.8994 9.08208L15.2574 6.44027L16.138 5.5597L17.8994 7.32095L21.862 3.35819L22.7426 4.23875L17.8994 9.08208Z" fill="#7BAB34"/>
</svg>
