<svg width="98" height="98" viewBox="0 0 98 98" fill="none" xmlns="http://www.w3.org/2000/svg">
<path d="M49 98C76.062 98 98 76.062 98 49C98 21.938 76.062 0 49 0C21.938 0 0 21.938 0 49C0 76.062 21.938 98 49 98Z" fill="#7BAB34"/>
<path d="M37.5582 29C28.2233 29 22 36.6523 22 45.1756C22 53.139 26.543 60.107 32.0817 65.5196C37.6204 70.9944 44.2793 75.0383 48.8223 77.3402C49.1957 77.5269 49.5691 77.5269 49.9424 77.3402C54.4854 74.9761 61.1443 70.9322 66.683 65.5196C72.2217 60.107 76.7647 53.2012 76.7647 45.1756C76.7647 36.6523 70.5414 29 61.2066 29C55.7301 29 52.0584 31.7996 49.3824 35.5947C46.7064 31.7996 43.0346 29 37.5582 29Z" fill="white"/>
</svg>
