<svg width="102" height="102" viewBox="0 0 102 102" fill="none" xmlns="http://www.w3.org/2000/svg">
<path d="M51 102C79.1665 102 102 79.1665 102 51C102 22.8335 79.1665 0 51 0C22.8335 0 0 22.8335 0 51C0 79.1665 22.8335 102 51 102Z" fill="#7BAB34"/>
<path d="M29.2304 58.6424C28.7338 52.0315 31.0835 44.8786 29.085 38.364C28.7822 37.3766 29.085 36.8708 30.1751 36.8708C34.8262 36.8708 36.2312 41.0975 36.425 44.8304C36.584 48.4505 36.4178 52.0774 35.9284 55.6681C35.783 57.2576 35.0321 62.8932 35.4802 64.3623C35.9284 65.8314 34.7293 65.8073 34.1721 65.9518C33.152 66.0859 32.1144 65.9389 31.1725 65.527C30.2306 65.1151 29.4205 64.4539 28.8306 63.6157C27.4129 61.1434 26.1782 58.5717 25.1364 55.921C24.5308 54.4759 23.1379 50.0084 22.387 49.4545C22.387 49.7555 22.387 50.0566 22.387 50.3576C22.0842 55.0299 21.636 59.8466 21.6845 64.567C21.2363 66.602 18.0508 65.9036 16.9849 64.868C15.9704 63.704 15.3889 62.2289 15.3377 60.6895C14.9721 57.3584 14.9032 54.0018 15.1318 50.6587L15.2408 39.1708C15.2335 38.9027 15.1969 38.6362 15.1318 38.376C14.9864 37.4367 15.3377 36.9912 16.343 36.8347C17.3935 36.6358 18.4808 36.8118 19.4136 37.3316C20.3464 37.8515 21.0648 38.6819 21.4422 39.6765C22.3991 41.8561 23.041 44.1922 23.9979 46.3838C25.7905 50.5985 27.4983 54.6325 29.194 58.6063L29.2304 58.6424Z" fill="white"/>
<path d="M48.5734 49.8398C49.3244 50.1891 50.3781 51.6822 49.07 51.9351C47.8305 52.11 46.5793 52.1906 45.3274 52.176C45.1215 55.7042 44.2252 59.0879 44.1162 62.6162H47.665C49.3607 62.7125 51.3592 62.267 52.2071 64.0492C52.4614 64.5068 52.3161 64.7958 51.8679 64.8439C49.1669 65.0968 46.4659 65.3497 43.7649 65.5424C41.6695 65.7471 39.1623 64.9042 38.6657 62.7126C38.1724 60.3119 38.0701 57.8481 38.3629 55.4152C38.6657 51.8027 39.0654 48.2503 39.3197 44.5776C39.5238 42.1526 39.1974 39.7124 38.3629 37.4247C38.1206 36.931 38.1206 36.5336 38.6657 36.3771C40.3735 35.8352 41.512 36.4855 43.0139 36.931C45.4364 37.6294 48.0647 37.1718 50.5114 37.1718C50.8878 37.1859 51.2546 37.2936 51.5784 37.485C51.9021 37.6765 52.1724 37.9455 52.3645 38.2676C52.7642 38.8215 52.6068 39.1587 51.9164 39.2189C50.2691 39.3634 48.6097 39.4116 46.9625 39.5561C46.346 39.5683 45.731 39.6206 45.1215 39.7127C45.8724 42.7851 46.0571 45.9674 45.6665 49.1053C46.6564 49.2596 47.6296 49.5055 48.5734 49.8398Z" fill="white"/>
<path d="M64.6222 63.9047C63.9833 64.8369 62.9996 65.4802 61.8856 65.6945C60.7717 65.9088 59.6177 65.6766 58.6751 65.0486C55.6713 62.9654 54.9204 58.7387 54.6781 55.5115C54.3855 50.4787 54.3653 45.434 54.6175 40.399C54.8234 38.1231 55.526 36.2807 57.9242 36.076C58.6314 35.91 59.3757 36.0181 60.0057 36.3782C60.6357 36.7384 61.104 37.3235 61.3156 38.0147C62.1634 42.8315 61.7152 48.2985 61.7637 53.0791C61.8243 55.355 61.7637 61.5686 62.3693 62.568C63.7685 58.5182 64.9054 54.3834 65.7728 50.189C66.3663 47.6121 66.8629 41.1456 70.0121 40.5555C70.4189 40.4122 70.8533 40.3636 71.282 40.4133C71.7106 40.4631 72.1221 40.6099 72.4847 40.8425C72.8474 41.0751 73.1515 41.3873 73.3738 41.7551C73.5961 42.1228 73.7305 42.5364 73.7669 42.9639C74.1135 44.8321 74.312 46.7245 74.3604 48.6236C74.4573 51.4173 74.3604 54.1387 74.3604 56.9324C74.5178 59.112 74.3604 62.5921 76.3589 63.6879C76.6954 63.1778 76.9988 62.6469 77.2673 62.0984C78.035 60.205 78.5363 58.2154 78.7571 56.1858C79.5947 50.5394 80.7635 44.9465 82.2575 39.4357L83.0084 37.4006C83.2335 36.9672 83.5856 36.612 84.0182 36.3819C84.4507 36.1518 84.9434 36.0578 85.4309 36.1121C85.988 36.2566 86.085 36.5095 85.9396 37.0995C85.334 39.2912 84.6315 41.4226 84.1833 43.6142C83.5414 46.7451 83.0811 49.9723 82.4876 53.1513C81.7851 56.9325 81.6398 61.2434 79.1326 63.9287C78.4802 64.6353 77.6674 65.1767 76.762 65.5079C75.8566 65.839 74.8847 65.9503 73.9273 65.8325C72.9699 65.7147 72.0546 65.3712 71.2577 64.8306C70.4608 64.29 69.8054 63.5679 69.3459 62.7245C68.2255 60.3441 67.6269 57.7541 67.5896 55.1262C67.0075 58.1731 66.0091 61.1266 64.6222 63.9047Z" fill="white"/>
</svg>
