<svg width="104" height="54" viewBox="0 0 104 54" fill="none" xmlns="http://www.w3.org/2000/svg">
<path d="M30.796 53.168C33.638 53.168 35.878 50.858 35.878 48.1C35.878 45.314 33.666 43.032 30.824 43.032C27.982 43.032 25.742 45.342 25.742 48.1C25.742 50.886 27.954 53.168 30.796 53.168ZM30.796 52.734C28.178 52.734 26.204 50.662 26.204 48.128C26.204 45.566 28.192 43.466 30.824 43.466C33.442 43.466 35.416 45.538 35.416 48.072C35.416 50.634 33.428 52.734 30.796 52.734ZM30.866 50.718C31.804 50.718 32.392 50.354 32.938 49.794L32.434 49.304C31.972 49.738 31.552 50.004 30.894 50.004C29.858 50.004 29.046 49.108 29.046 48.03C29.046 46.938 29.83 46.042 30.88 46.042C31.496 46.042 31.986 46.35 32.392 46.742L32.91 46.182C32.392 45.692 31.832 45.342 30.894 45.342C29.382 45.342 28.262 46.56 28.262 48.016C28.262 49.514 29.382 50.718 30.866 50.718ZM41.4904 53H48.3364V51.992H43.1424L45.7604 49.668C47.4684 48.156 48.2384 47.288 48.2384 45.86C48.2384 44.236 46.9644 43.06 45.2004 43.06C43.4784 43.06 42.5544 43.83 41.6724 45.146L42.4844 45.734C43.2684 44.642 43.9964 44.054 45.1164 44.054C46.1804 44.054 47.0904 44.782 47.0904 45.93C47.0904 46.91 46.5584 47.68 45.0464 49.01L41.4904 52.146V53ZM54.1972 53.168C56.7172 53.168 58.3412 50.844 58.3412 48.1C58.3412 45.328 56.7452 43.032 54.2252 43.032C51.7052 43.032 50.0672 45.356 50.0672 48.1C50.0672 50.872 51.6632 53.168 54.1972 53.168ZM54.2252 52.16C52.3912 52.16 51.2152 50.242 51.2152 48.1C51.2152 45.916 52.3632 44.04 54.1972 44.04C56.0172 44.04 57.1932 45.958 57.1932 48.1C57.1932 50.27 56.0592 52.16 54.2252 52.16ZM61.713 53H62.805V43.13H61.993L59.599 43.956L59.865 44.852L61.713 44.278V53ZM68.4666 53.168C70.5106 53.168 71.9666 51.866 71.9666 49.948C71.9666 48.058 70.4826 46.924 68.5786 46.924C67.7666 46.924 67.2206 47.106 66.6466 47.358L66.8566 44.222H71.5326V43.2H65.8906L65.6106 47.974L66.3526 48.464C66.9266 48.156 67.5846 47.904 68.4106 47.904C69.8386 47.904 70.8466 48.744 70.8466 49.962C70.8466 51.236 69.8806 52.16 68.4806 52.16C67.4866 52.16 66.5486 51.642 65.6946 50.816L64.9666 51.614C65.8486 52.496 67.0666 53.168 68.4666 53.168Z" fill="white"/>
<path fill-rule="evenodd" clip-rule="evenodd" d="M55.6269 23.2782V28.207H52.2803C50.607 28.207 49.4777 27.2119 49.4777 25.724C49.4777 24.1896 50.5245 23.2782 52.2803 23.2782H55.6269ZM52.1896 21.1765C50.6399 21.1765 49.3211 21.6973 48.4803 22.6551C47.8456 23.3526 47.4829 24.4221 47.4829 25.6124C47.4829 27.6955 48.604 29.2671 50.4998 29.8437L46.6174 35.6559L46.5845 35.7024L46.3784 36H46.7163H48.7606H48.843L48.8925 35.9256L52.6759 30.2343H55.6269V35.814V36H55.7917H57.4568H57.6216V35.814V21.3625V21.1765H57.4568H52.1896Z" fill="white"/>
<path fill-rule="evenodd" clip-rule="evenodd" d="M77.4722 21.1765H77.2973V21.3625V35.814V36H77.4722H79.2304H79.4054V35.814V21.3625V21.1765H79.2304H77.4722Z" fill="white"/>
<path fill-rule="evenodd" clip-rule="evenodd" d="M7.03143 33.9419C4.23294 33.9419 2.12087 31.6429 2.12087 28.6022C2.12087 25.5429 4.23294 23.2346 7.03143 23.2346C9.82112 23.2346 11.9332 25.5429 11.9332 28.6022C11.9332 31.6429 9.82112 33.9419 7.03143 33.9419ZM7.03143 21.1765C5.10416 21.1765 3.32651 21.9274 2.02407 23.3087C0.712823 24.6807 0 26.5627 0 28.6022C0 30.6324 0.721623 32.505 2.03287 33.877C3.33531 35.2491 5.11296 36 7.03143 36C8.94109 36 10.7187 35.2491 12.0212 33.877C13.3324 32.505 14.0541 30.6324 14.0541 28.6022C14.0541 26.5627 13.3324 24.6807 12.03 23.3087C10.7275 21.9274 8.94989 21.1765 7.03143 21.1765Z" fill="white"/>
<path fill-rule="evenodd" clip-rule="evenodd" d="M23.3077 27.3235H19.0609V23.334H23.3077H23.3168H23.3349C24.7233 23.334 25.422 23.9664 25.422 25.2218C25.422 26.5423 24.6326 27.3235 23.3077 27.3235ZM19.0609 29.481H23.3712C25.5854 29.481 25.9211 30.848 25.9211 31.6664C25.9211 32.1779 25.7306 33.8425 23.3712 33.8425H19.0609V29.481ZM26.0845 28.1698C27.0373 27.556 27.609 26.468 27.609 25.2218C27.609 24.4686 27.4638 23.3898 26.7469 22.5156C26.03 21.6322 24.9139 21.1765 23.4257 21.1765H17.0463H16.8648V21.3718V35.8047V36H17.0463H23.5709C26.7015 36 28.1081 33.8053 28.1081 31.6385C28.1081 30.0297 27.3277 28.7184 26.0845 28.1698Z" fill="white"/>
<path fill-rule="evenodd" clip-rule="evenodd" d="M71.1338 21.1765H70.9576V21.3625V27.3235H63.9614V21.3625V21.1765H63.794H62.0141H61.8379V21.2416V35.6931V36H62.0141H63.794H63.9614V35.814V29.481H70.9576V35.814V36H71.1338H72.9049H73.0811V35.6931V21.2416V21.1765H72.9049H71.1338Z" fill="white"/>
<path fill-rule="evenodd" clip-rule="evenodd" d="M82.9509 28.3323L88.6272 21.4929L88.8831 21.1765H88.4851H86.2392H86.1539L86.0971 21.2417L80.2123 28.3696L80.1081 28.4905L80.2123 28.6115L86.2487 35.9255L86.3055 36H86.3908H88.8452H89.2432L88.9873 35.6743L82.9509 28.3323Z" fill="white"/>
<path fill-rule="evenodd" clip-rule="evenodd" d="M97.0645 33.9419C94.2937 33.9419 92.0458 31.5687 92.0458 28.6485C92.0458 25.6078 94.224 23.2346 97.0209 23.2346C99.8091 23.2346 101.996 25.6263 101.996 28.6763C101.996 31.6243 99.8265 33.9419 97.0645 33.9419ZM103.826 21.2043H102.17H101.996V21.3897V23.5776C100.846 21.983 99.173 21.1765 97.0209 21.1765C92.4204 21.1765 89.946 24.9496 89.946 28.5002C89.946 30.6046 90.6778 32.5143 92.0109 33.8956C93.3266 35.2491 95.1215 36 97.0645 36C99.1033 36 100.794 35.11 101.996 33.4228V35.796V35.9814H102.17H103.826H104V35.796V21.3897V21.2043H103.826Z" fill="white"/>
<path fill-rule="evenodd" clip-rule="evenodd" d="M37.736 23.2346C39.8939 23.2346 41.7314 24.4304 42.5512 26.3587L42.5984 26.4792H42.7209H44.7186H44.973L44.8976 26.2382C43.9082 23.1604 41.1001 21.1765 37.736 21.1765C35.6817 21.1765 33.7782 21.9274 32.3742 23.3087C30.9795 24.6807 30.2162 26.5627 30.2162 28.6022C30.2162 30.6324 30.989 32.505 32.393 33.877C33.7876 35.2491 35.6817 36 37.736 36C39.3945 36 40.9399 35.5179 42.2214 34.6001C43.4841 33.7009 44.4076 32.4401 44.8882 30.9569L44.973 30.7251H44.7092H42.7209H42.5984L42.5512 30.8363C41.7314 32.7553 39.8939 33.9419 37.736 33.9419C34.7488 33.9419 32.4872 31.6429 32.4872 28.6022C32.4872 25.5429 34.7488 23.2346 37.736 23.2346Z" fill="white"/>
<path fill-rule="evenodd" clip-rule="evenodd" d="M51.8177 16.9411C50.2095 16.9411 47.2406 14.1683 45.3939 10.032C43.3704 5.51806 44.687 0.488243 44.74 0.276364L44.8195 0L45.0669 0.119758C45.2525 0.211879 49.7942 2.38594 51.8177 6.9091C53.8853 11.5428 53.7969 16.1212 52.339 16.8306C52.1888 16.9043 52.0121 16.9411 51.8177 16.9411Z" fill="white"/>
<path fill-rule="evenodd" clip-rule="evenodd" d="M59.2792 0.705811C59.2792 0.705811 54.7001 2.83078 52.7202 7.19729C52.7115 7.21523 52.7115 7.23316 52.7027 7.24212C52.9644 7.85182 53.1999 8.47945 53.3918 9.08915C53.6622 8.34496 54.8048 5.67305 57.8313 3.21633C57.8313 3.21633 54.8309 6.20205 53.6796 10.0844C54.3425 12.6397 54.3599 15.0158 53.7058 16.2352C55.2409 15.3654 57.2644 13.106 58.6512 10.0396C60.6311 5.67305 59.2792 0.705811 59.2792 0.705811Z" fill="white"/>
</svg>
