<svg width="22" height="15" viewBox="0 0 22 15" fill="none" xmlns="http://www.w3.org/2000/svg">
<path fill-rule="evenodd" clip-rule="evenodd" d="M15.4286 7.28571C15.4286 11.3103 11.9753 14.5714 7.71428 14.5714C3.45318 14.5714 0 11.3096 0 7.28571C0 3.26177 3.45399 0 7.71428 0C11.9746 0 15.4286 3.26177 15.4286 7.28571ZM7.71428 13.7664C11.5046 13.7664 14.5762 10.8657 14.5762 7.28571C14.5762 3.70641 11.5038 0.805051 7.71428 0.805051C3.92474 0.805051 0.852407 3.70641 0.852407 7.28571C0.852407 10.865 3.92399 13.7664 7.71428 13.7664Z" fill="white"/>
<path d="M14.1432 14.0714C12.7085 14.0714 11.3799 13.625 10.2844 12.8638C10.2924 12.8625 10.3008 12.8611 10.3095 12.8593C10.3217 12.8568 10.3432 12.852 10.3691 12.8433C10.3884 12.8369 10.4448 12.8175 10.5058 12.7732C10.519 12.7636 10.5386 12.7481 10.5607 12.7266C10.6401 12.6563 10.7184 12.5963 10.8102 12.5259C10.8474 12.4975 10.8867 12.4674 10.9292 12.4342C11.0723 12.3224 11.2368 12.1862 11.386 12.007L12.056 11.2027L11.9737 11.2014L11.9858 11.1821C12.0069 11.1487 12.0283 11.1151 12.0498 11.0812C12.1798 10.877 12.3174 10.6606 12.4389 10.4034L12.6471 9.96276H12.6602L12.6917 9.86833L12.776 9.68984H12.7514L12.7743 9.62124C12.862 9.35882 12.9314 9.10717 12.9909 8.85995L13.0741 8.51435H13.0811L13.0873 8.45928L13.1394 8.24295H13.1118L13.1313 8.07055C13.1589 7.8261 13.1789 7.56763 13.1789 7.28575V7.05715H13.2009L13.1789 6.87366V6.78575H13.1684L13.1339 6.49771C13.1031 6.2411 13.0587 5.99243 13.0025 5.72979L12.9669 5.5636H12.9976L12.7737 4.90309C12.6949 4.67078 12.5995 4.47609 12.5126 4.29907C12.4871 4.247 12.4623 4.19647 12.4389 4.14695L12.4329 4.13413H12.4715L12.3192 3.89339L12.3036 3.86049H12.2984L11.986 3.36681C11.8214 3.10658 11.6397 2.89046 11.4709 2.68984C11.4451 2.65915 11.4196 2.62882 11.3945 2.59875L11.5024 2.59704L10.9 1.80914C10.8073 1.68793 10.7076 1.58636 10.6122 1.499C11.6418 0.86695 12.8488 0.5 14.1433 0.5C17.8915 0.5 20.9286 3.53799 20.9286 7.28575C20.9286 11.0335 17.8908 14.0714 14.1432 14.0714Z" fill="white" stroke="white"/>
</svg>
