<svg width="41" height="41" viewBox="0 0 41 41" fill="none" xmlns="http://www.w3.org/2000/svg">
<path d="M29.6633 0H11.3059C5.07184 0 0 5.07583 0 11.3145V29.6855C0 35.9244 5.07184 41 11.3059 41H29.6633C35.8979 41 40.9697 35.9242 40.9697 29.6855V11.3145C40.9699 5.07583 35.8979 0 29.6633 0ZM37.3349 29.6855C37.3349 33.9186 33.8935 37.3623 29.6635 37.3623H11.3059C7.07619 37.3625 3.63503 33.9186 3.63503 29.6855V11.3145C3.63503 7.08167 7.07619 3.63772 11.3059 3.63772H29.6633C33.8933 3.63772 37.3347 7.08167 37.3347 11.3145V29.6855H37.3349Z" fill="#313131"/>
<rect width="41" height="41" rx="10" fill="white"/>
<path d="M20.4848 9.93604C14.6637 9.93604 9.92798 14.6753 9.92798 20.5007C9.92798 26.3259 14.6637 31.0649 20.4848 31.0649C26.306 31.0649 31.0417 26.3259 31.0417 20.5007C31.0417 14.6753 26.306 9.93604 20.4848 9.93604ZM20.4848 27.4269C16.6683 27.4269 13.563 24.3198 13.563 20.5005C13.563 16.6809 16.6681 13.5735 20.4848 13.5735C24.3016 13.5735 27.4067 16.6809 27.4067 20.5005C27.4067 24.3198 24.3014 27.4269 20.4848 27.4269Z" fill="#7BAB34"/>
<path d="M31.4845 6.85107C30.7842 6.85107 30.0962 7.13482 29.6016 7.63197C29.1046 8.1267 28.8188 8.81544 28.8188 9.51873C28.8188 10.2198 29.1048 10.9083 29.6016 11.4055C30.096 11.9002 30.7842 12.1864 31.4845 12.1864C32.1873 12.1864 32.8731 11.9002 33.3699 11.4055C33.8667 10.9083 34.1502 10.2196 34.1502 9.51873C34.1502 8.81544 33.8667 8.1267 33.3699 7.63197C32.8755 7.13482 32.1873 6.85107 31.4845 6.85107Z" fill="#7BAB34"/>
</svg>
