<svg width="85" height="82" viewBox="0 0 85 82" fill="none" xmlns="http://www.w3.org/2000/svg">
<ellipse cx="42.5" cy="41" rx="42.5" ry="41" fill="#EBFBBE"/>
<path d="M54.3439 29.8655C52.7021 28.6452 50.7963 28 48.8323 28C45.7528 28 43.0553 29.9224 41.5955 32.7813C40.1357 29.9224 37.4384 28 34.3587 28C30.9299 28 27.751 29.9725 25.8549 33.2766C25.5375 33.8297 25.7287 34.5354 26.2818 34.853C26.8354 35.1704 27.5412 34.9795 27.8584 34.4261C29.3375 31.8485 31.7677 30.3097 34.3588 30.3097C37.7123 30.3097 40.4406 33.6143 40.4406 37.6761C40.4406 38.314 40.9576 38.8311 41.5956 38.8311C42.2336 38.8311 42.7507 38.314 42.7507 37.6761C42.7507 33.6142 45.479 30.3097 48.8325 30.3097C50.2963 30.3097 51.7255 30.7971 52.9659 31.719C53.4778 32.0996 54.2014 31.9931 54.5819 31.4811C54.9624 30.9696 54.8558 30.2461 54.3439 29.8655Z" fill="black"/>
<path d="M56.4408 66.3928C56.1953 65.8041 55.5191 65.5262 54.9302 65.7716L44.8348 69.9827C42.8022 70.832 40.5301 70.9194 38.4359 70.2291L14.7568 62.4269C13.2659 61.9349 11.6526 62.0116 10.2158 62.6422L9.27615 63.0535C8.69172 63.3094 8.42567 63.9904 8.68148 64.5746C8.93728 65.1591 9.61833 65.4253 10.2026 65.1694L11.1432 64.7578C12.0578 64.3561 13.0842 64.3072 14.0334 64.6205L37.713 72.4229C38.8817 72.8081 40.0947 73.0001 41.3058 73.0001C42.8114 73.0001 44.3142 72.7037 45.7247 72.1145L55.8196 67.9035C56.4081 67.6578 56.6864 66.9816 56.4408 66.3928Z" fill="black"/>
<path d="M71.4392 55.4449C71.438 55.4422 71.4325 55.4289 71.4312 55.4264L71.4225 55.4061C70.3831 52.9957 67.7645 51.6936 65.2554 52.2351C65.5734 51.2065 65.5219 50.1099 65.0998 49.105C64.6232 47.9701 63.7326 47.0903 62.5922 46.6278C62.5895 46.6267 62.5618 46.6158 62.5593 46.6147C60.3275 45.7278 57.7642 46.7287 56.7233 48.8928L53.0851 56.4479L47.1871 58.5115C46.0863 58.8958 44.875 58.8958 43.7769 58.5116L43.6081 58.4527C51.0351 54.3142 59.0349 47.2727 59.0349 39.8067C59.0349 37.204 58.3203 34.7387 56.9681 32.6776C56.6185 32.1442 55.902 31.9955 55.3689 32.3453C54.8354 32.6953 54.6868 33.4111 55.0366 33.9446C56.1412 35.6283 56.7249 37.6554 56.7249 39.8067C56.7249 46.1417 49.2117 52.8963 41.5952 56.9173C39.5524 55.8395 37.523 54.5598 35.6933 53.1938C34.1323 52.0324 32.7198 50.8086 31.5035 49.5711L43.2705 53.595C45.5998 54.3935 48.1951 53.2511 49.1793 50.9955C49.7053 49.7944 49.7082 48.4121 49.187 47.2031C48.6738 46.0125 47.7254 45.1029 46.519 44.6427L25.6358 36.6322C25.4855 36.5725 25.3212 36.5123 25.1195 36.4434C21.0223 35.0358 16.3512 35.678 12.625 38.1612L1.51476 45.5625C0.983906 45.916 0.840221 46.6332 1.19389 47.1641C1.54757 47.6949 2.2646 47.8386 2.79546 47.4848L13.9057 40.0835C17.0367 37.9969 20.9482 37.4531 24.3704 38.6284C24.5372 38.6856 24.6684 38.7333 24.7956 38.7837L45.6935 46.7999C46.314 47.0367 46.8014 47.5047 47.0657 48.1174C47.3384 48.7497 47.3376 49.4425 47.0626 50.07C46.5556 51.2323 45.2186 51.8206 44.0187 51.4092L30.7617 46.876C29.7025 46.5133 28.5527 46.5582 27.5239 47.0017C26.2456 47.553 25.3087 48.6394 24.9538 49.9824C24.3568 52.2379 25.616 54.6099 27.8213 55.3824L43.0144 60.6917C44.6035 61.2473 46.3556 61.2475 47.9487 60.6917L65.3677 54.5966C66.9222 54.0522 68.6497 54.8094 69.3061 56.3313L69.3115 56.3441C69.64 57.1208 69.6453 57.9787 69.3263 58.7597C69.0069 59.5418 68.4011 60.152 67.6212 60.4774L58.3197 64.3573C57.7311 64.6029 57.4529 65.2791 57.6984 65.8678C57.8834 66.3111 58.3126 66.5784 58.7649 66.5784C58.913 66.5784 59.0636 66.5497 59.2091 66.4892L68.5106 62.6093C69.862 62.0453 70.9112 60.9886 71.4649 59.6333C72.0177 58.2795 72.0087 56.7919 71.4392 55.4449ZM28.584 53.2027C27.5098 52.8263 26.8961 51.6716 27.1867 50.5736C27.3299 50.0326 27.6694 49.5796 28.1351 49.2865C29.7591 51.2672 31.8329 53.2011 34.313 55.0461C34.4501 55.1485 34.591 55.249 34.7303 55.3505L28.584 53.2027ZM62.9766 51.7552L62.3849 53.1938L56.1682 55.369L58.8046 49.8947C59.3223 48.8184 60.5969 48.3202 61.7061 48.7612C61.7076 48.7616 61.7223 48.7677 61.7238 48.7681C62.2907 48.998 62.7332 49.4353 62.9702 49.9995C63.2074 50.5644 63.2098 51.188 62.9766 51.7552Z" fill="black"/>
</svg>
