<svg width="98" height="82" viewBox="0 0 98 82" fill="none" xmlns="http://www.w3.org/2000/svg">
<ellipse cx="55.5" cy="41" rx="42.5" ry="41" fill="#EBFBBE"/>
<path d="M49 71H46V67H41V56.778C41 54.078 39.658 51.57 37.411 50.072L26.803 43L37.411 35.928C39.658 34.43 41 31.922 41 29.222V19H46V15H49C49.552 15 50 14.553 50 14C50 13.447 49.552 13 49 13H46H45H5H4H1C0.448 13 0 13.447 0 14C0 14.553 0.448 15 1 15H4V19H9V29.222C9 31.922 10.342 34.43 12.589 35.928L23.197 43L12.589 50.072C10.342 51.57 9 54.078 9 56.778V67H4V71H1C0.448 71 0 71.447 0 72C0 72.553 0.448 73 1 73H4H5H45H46H49C49.552 73 50 72.553 50 72C50 71.447 49.552 71 49 71ZM6 17V15H44V17H41H9H6ZM13.698 34.264C12.009 33.137 11 31.252 11 29.222V19H39V29.222C39 31.252 37.991 33.137 36.302 34.264L25 41.798L13.698 34.264ZM11 56.778C11 54.748 12.009 52.863 13.698 51.736L25 44.202L36.302 51.736C37.991 52.863 39 54.748 39 56.778V67H11V56.778ZM6 69H9H41H44V71H6V69Z" fill="black"/>
<path d="M15.917 30.936C15.343 30.553 15 29.912 15 29.222V27C15 26.447 14.552 26 14 26C13.448 26 13 26.447 13 27V29.222C13 30.583 13.676 31.846 14.808 32.6L19.446 35.692C19.616 35.805 19.809 35.86 20 35.86C20.323 35.86 20.64 35.704 20.833 35.415C21.139 34.955 21.015 34.335 20.556 34.028L15.917 30.936Z" fill="black"/>
<path d="M35.192 54.2601L30.554 51.1681C30.094 50.8611 29.474 50.9851 29.167 51.4451C28.861 51.9051 28.985 52.5251 29.444 52.8321L34.082 55.9241C34.657 56.3071 35 56.9471 35 57.6381V59.8601C35 60.4131 35.448 60.8601 36 60.8601C36.552 60.8601 37 60.4131 37 59.8601V57.6381C37 56.2761 36.324 55.0141 35.192 54.2601Z" fill="black"/>
</svg>
